{"title":"Vampire Academy 2014 720p BluRay x264 DTS SPARKS DUAL LAPUMiA","uid":10450689,"size":4990606774,"categoryP":"video","categoryS":"hd___movies","magnet":"?xt=urn:btih:58de1e4a6a85f021869ecdd5429372810d6c8b95&amp;dn=Vampire+Academy+2014+720p+BluRay+x264+DTS+SPARKS+DUAL+LAPUMiA&amp;tr=udp%3A%2F%2Ftracker.openbittorrent.com%3A80&amp;tr=udp%3A%2F%2Fopen.demonii.com%3A1337&amp;tr=udp%3A%2F%2Ftracker.coppersurfer.tk%3A6969&amp;tr=udp%3A%2F%2Fexodus.desync.com%3A6969","seeders":1,"leechers":0,"uploader":"Alemao99","files":5,"time":1404013045,"description":"In the school of St. Vladimir studying vampires Rose and Lissa, two best friends. Rose is half human, half vampire, and lost the whole family in an accident. She has the gift to get inside the head of Lissa, a princess who rules the element of Spirit, being able to heal people and animals. Together, they will protect the Moroi vampires enemies Strigoi. \n\nTitle in Brazil: Vampire Academy: The Kiss of Shadows \nOriginal title: Vampire Academy \nGenre: Action / Comedy / Fantasy \nCountry of Origin: USA / UK / Romania \nDuration: 104 minutes \nDirected by: Mark Waters \nPosted in Brazil: 2014 \nStudio / Distrib:. Films Paris \nIMDB Link: http://www.imdb.com/title/tt1686821/ \n\nSize: 4.65 GB \nFile Extension: MKV \nVideo Quality: Blu-Ray \nVideo codec: H.264 / AVC \nAudio Codec: AC3 / DTS\nResolution: 1280 x 536 \nAudio Language: Portuguese / English \nSubtitles: Portuguese\n\n\nFormat                                   : Matroska\nFormat version                           : Version 4 / Version 2\nFile size                                : 4.65 GiB\nDuration                                 : 1h 44mn\nOverall bit rate                         : 6 374 Kbps\nEncoded date                             : UTC 2014-06-18 03:36:45\nWriting application                      : mkvmerge v6.4.1 ('Omega Point') built on Sep 16 2013 22:05:10\nWriting library                          : libebml v1.3.0 + libmatroska v1.4.1\n\nVideo\nID                                       : 1\nFormat                                   : AVC\nFormat/Info                              : Advanced Video Codec\nFormat profile                           : &lt;a class=&quot;__cf_email__&quot; href=&quot;/cdn-cgi/l/email-protection&quot; data-cfemail=&quot;226a4b454a626e160c13&quot;&gt;[email&amp;#160;protected]&lt;/a&gt;&lt;script cf-hash='f9e31' type=&quot;text/javascript&quot;&gt;\n/* &lt;![CDATA[ */!function(){try{var t=&quot;currentScript&quot;in document?document.currentScript:function(){for(var t=document.getElementsByTagName(&quot;script&quot;),e=t.length;e--;)if(t[e].getAttribute(&quot;cf-hash&quot;))return t[e]}();if(t&amp;&amp;t.previousSibling){var e,r,n,i,c=t.previousSibling,a=c.getAttribute(&quot;data-cfemail&quot;);if(a){for(e=&quot;&quot;,r=parseInt(a.substr(0,2),16),n=2;a.length-n;n+=2)i=parseInt(a.substr(n,2),16)^r,e+=String.fromCharCode(i);e=document.createTextNode(e),c.parentNode.replaceChild(e,c)}}}catch(u){}}();/* ]]&gt; */&lt;/script&gt;\nFormat settings, CABAC                   : Yes\nFormat settings, ReFrames                : 5 frames\nCodec ID                                 : V_MPEG4/ISO/AVC\nDuration                                 : 1h 44mn\nBit rate                                 : 4 481 Kbps\nWidth                                    : 1 280 pixels\nHeight                                   : 536 pixels\nDisplay aspect ratio                     : 2.40:1\nFrame rate                               : 23.976 fps\nColor space                              : YUV\nChroma subsampling                       : 4:2:0\nBit depth                                : 8 bits\nScan type                                : Progressive\nBits/(Pixel*Frame)                       : 0.272\nStream size                              : 3.17 GiB (68%)\nWriting library                          : x264 core 142 r2431 ac76440\nEncoding settings                        : cabac=1 / ref=5 / deblock=1:0:0 / analyse=0x3:0x133 / me=umh / subme=7 / psy=1 / psy_rd=1.00:0.00 / mixed_ref=1 / me_range=16 / chroma_me=1 / trellis=1 / 8x8dct=1 / cqm=0 / deadzone=21,11 / fast_pskip=0 / chroma_qp_offset=-2 / threads=12 / lookahead_threads=2 / sliced_threads=0 / nr=0 / decimate=1 / interlaced=0 / bluray_compat=0 / constrained_intra=0 / bframes=3 / b_pyramid=2 / b_adapt=1 / b_bias=0 / direct=1 / weightb=1 / open_gop=0 / weightp=2 / keyint=250 / keyint_min=23 / scenecut=40 / intra_refresh=0 / rc_lookahead=40 / rc=2pass / mbtree=1 / bitrate=4481 / ratetol=1.0 / qcomp=0.60 / qpmin=0 / qpmax=69 / qpstep=4 / cplxblur=20.0 / qblur=0.5 / ip_ratio=1.40 / aq=1:1.00\nLanguage                                 : English\nDefault                                  : Yes\nForced                                   : No\n\nAudio #1\nID                                       : 2\nFormat                                   : AC-3\nFormat/Info                              : Audio Coding 3\nMode extension                           : CM (complete main)\nFormat settings, Endianness              : Big\nCodec ID                                 : A_AC3\nDuration                                 : 1h 44mn\nBit rate mode                            : Constant\nBit rate                                 : 384 Kbps\nChannel(s)                               : 6 channels\nChannel positions                        : Front: L C R, Side: L R, LFE\nSampling rate                            : 48.0 KHz\nBit depth                                : 16 bits\nCompression mode                         : Lossy\nDelay relative to video                  : 23ms\nStream size                              : 287 MiB (6%)\nTitle                                    : PT-BR lapumia\nLanguage                                 : Portuguese\nDefault                                  : Yes\nForced                                   : Yes\n\nAudio #2\nID                                       : 3\nFormat                                   : DTS\nFormat/Info                              : Digital Theater Systems\nCodec ID                                 : A_DTS\nDuration                                 : 1h 44mn\nBit rate mode                            : Constant\nBit rate                                 : 1 510 Kbps\nChannel(s)                               : 6 channels\nChannel positions                        : Front: L C R, Side: L R, LFE\nSampling rate                            : 48.0 KHz\nBit depth                                : 24 bits\nCompression mode                         : Lossy\nStream size                              : 1.10 GiB (24%)\nTitle                                    : ENG\nLanguage                                 : English\nDefault                                  : No\nForced                                   : No\n\n\nSEED PLEASE\n\nENJOY...","torrent":{"xt":"urn:btih:58de1e4a6a85f021869ecdd5429372810d6c8b95","amp;dn":"Vampire+Academy+2014+720p+BluRay+x264+DTS+SPARKS+DUAL+LAPUMiA","amp;tr":["udp%3A%2F%2Ftracker.openbittorrent.com%3A80","udp%3A%2F%2Fopen.demonii.com%3A1337","udp%3A%2F%2Ftracker.coppersurfer.tk%3A6969","udp%3A%2F%2Fexodus.desync.com%3A6969"],"infoHash":"58de1e4a6a85f021869ecdd5429372810d6c8b95","infoHashBuffer":{"type":"Buffer","data":[88,222,30,74,106,133,240,33,134,158,205,213,66,147,114,129,13,108,139,149]},"announce":[],"urlList":[]}}